M48
INCH,TZ
T1C0.0118
T2C0.0171
T3C0.0197
T4C0.0380
T5C0.0450
T6C0.0467
T7C0.0690
%
G90
G05
T1
X38858Y-57148
X39128Y-25942
X39212Y-36271
X39282Y-42778
X39282Y-67466
X39329Y-51164
X39376Y-47065
X39376Y-64356
X39470Y-39009
X39580Y-33651
X39648Y-30778
X39847Y-60587
X40224Y-55593
X41625Y-25518
X41740Y-34984
X42054Y-54096
X42398Y-52870
X42439Y-67136
X42486Y-60304
X42686Y-51625
X42774Y-30733
X42858Y-50151
X42991Y-28533
X43004Y-63932
X43647Y-34686
X45265Y-59079
X45488Y-25659
X45972Y-67466
X46255Y-64780
X46359Y-31629
X46497Y-34640
X47244Y-61435
X47394Y-33077
X47715Y-30066
X47765Y-48129
X47804Y-46597
X48910Y-31008
X49117Y-33146
X49364Y-63320
X49724Y-57143
X49740Y-45403
X49977Y-67277
X50045Y-47861
X50313Y-49221
X50389Y-52189
X50485Y-50542
X51013Y-64922
X51296Y-67513
X51688Y-54090
X52396Y-59406
X53039Y-67984
X53677Y-40906
X53678Y-57061
X53951Y-54717
X54060Y-42170
X54124Y-48806
X54255Y-45632
X54332Y-62596
X54622Y-51587
X55195Y-33589
X55822Y-36741
X55937Y-42017
X56243Y-40887
X56333Y-26405
X56385Y-35165
X56431Y-68031
X57700Y-57625
X57834Y-53601
X57968Y-45418
X58025Y-26453
X58236Y-50784
X58236Y-61850
X58410Y-68031
X58572Y-47430
X58607Y-42426
X58636Y-63578
X58763Y-33788
X58852Y-33439
X59108Y-55277
X59175Y-59033
X59578Y-44948
X59669Y-26453
X59779Y-52930
X60114Y-48771
X60220Y-31757
X60651Y-62119
X60954Y-68031
X61188Y-59168
X61590Y-54338
X61657Y-50716
X61724Y-56887
X61992Y-45284
X62060Y-47363
X62151Y-31517
X62215Y-33720
X62797Y-60777
X62999Y-56619
X63075Y-68031
X63216Y-66052
X63401Y-47095
X63535Y-50918
X63769Y-25713
X64096Y-29017
X64488Y-63791
X64521Y-27512
X64672Y-33943
X64959Y-65770
X65582Y-30528
X65996Y-63838
X66420Y-67607
X66452Y-28984
X66553Y-57491
X66687Y-60442
X66755Y-53533
X66956Y-49845
X67157Y-45954
X67417Y-32890
X67531Y-25451
X67531Y-27381
X67550Y-65487
X68163Y-62320
X68681Y-67183
X69077Y-30400
X69941Y-32894
X70015Y-31860
X70175Y-57088
X70237Y-32894
X70276Y-31628
X70444Y-47430
X70533Y-32894
X70712Y-43741
X70895Y-67466
X70913Y-52125
X70913Y-62722
X71010Y-32894
X71246Y-33130
X71360Y-29969
X71392Y-25222
X71524Y-41518
X71706Y-31434
X71785Y-60308
X71794Y-41248
X72030Y-41012
X72460Y-31909
X72460Y-34231
X72729Y-40927
X72733Y-67654
X72813Y-37332
X73088Y-35605
X73261Y-41930
X73797Y-63863
X74009Y-25353
X74132Y-39650
X74200Y-47967
X74227Y-33995
X74602Y-53332
X74620Y-35369
X75340Y-63728
X75407Y-43339
X75675Y-56418
X75809Y-59369
X76725Y-25353
X76936Y-33406
X76949Y-37772
X77413Y-33546
X77687Y-61515
X77708Y-33570
X78004Y-33570
X78090Y-53265
X78291Y-36967
X78300Y-33570
X78339Y-67701
X78569Y-33750
X78693Y-39784
X78828Y-45149
X78895Y-50448
X79235Y-64733
X79310Y-25353
X79834Y-55948
X80236Y-63661
X80324Y-33041
X80706Y-58631
X81510Y-66344
X82058Y-25320
X82647Y-33238
X82718Y-60308
X83399Y-30129
X83563Y-37197
X84185Y-25254
X84327Y-58966
X84931Y-61515
X84964Y-56994
X85602Y-66411
X86665Y-30983
X87279Y-59100
X87326Y-25254
X87489Y-28592
X87875Y-34287
X88553Y-39717
X88620Y-55613
X88821Y-49979
X88955Y-45351
X89224Y-66478
X90296Y-36741
X90565Y-62655
X90591Y-30623
X90859Y-25778
X90968Y-42735
X91035Y-52460
X91102Y-56887
X91169Y-48503
T2
X71394Y-30411
X74865Y-32201
X75143Y-32479
X84674Y-49012
T3
X57045Y-35553
X57378Y-38004
X57458Y-38500
X57460Y-35735
X57640Y-36152
X57713Y-38875
X57736Y-36673
X59024Y-35326
X59050Y-37289
X59399Y-35599
T4
X54261Y-65634
X54261Y-66634
X55261Y-65634
X55261Y-66634
X56261Y-65634
X56261Y-66634
X57261Y-65634
X57261Y-66634
X58261Y-65634
X58261Y-66634
X59261Y-65634
X59261Y-66634
X60261Y-65634
X60261Y-66634
X61261Y-65634
X61261Y-66634
X69303Y-65634
X69303Y-66634
X70303Y-65634
X70303Y-66634
X71303Y-65634
X71303Y-66634
X72303Y-65634
X72303Y-66634
X73303Y-65634
X73303Y-66634
X74303Y-65634
X74303Y-66634
X75303Y-65634
X75303Y-66634
X76303Y-65634
X76303Y-66634
T5
X46140Y-28430
X46697Y-27239
X47255Y-26048
X47790Y-28430
X48347Y-27239
X48905Y-26048
X49440Y-28430
X49997Y-27239
X50555Y-26048
X51090Y-28430
X51647Y-27239
X52205Y-26048
X52740Y-28430
X53297Y-27239
X53855Y-26048
X54390Y-28430
X54947Y-27239
X55505Y-26048
X56040Y-28430
X56597Y-27239
X57154Y-26048
X57689Y-28430
X58247Y-27239
X58804Y-26048
X59339Y-28430
X59897Y-27239
X60454Y-26048
X60989Y-28430
X61547Y-27239
X62104Y-26048
X68629Y-28430
X69186Y-27239
X69744Y-26048
X70279Y-28430
X70836Y-27239
X71394Y-26048
X71929Y-28430
X72486Y-27239
X73043Y-26048
X73578Y-28430
X74136Y-27239
X74693Y-26048
X75228Y-28430
X75786Y-27239
X76343Y-26048
X76878Y-28430
X77436Y-27239
X77993Y-26048
X78528Y-28430
X79086Y-27239
X79643Y-26048
X80178Y-28430
X80736Y-27239
X81293Y-26048
X81828Y-28430
X82386Y-27239
X82943Y-26048
X83478Y-28430
X84035Y-27239
X84593Y-26048
T6
X51931Y-35328
X53836Y-36525
X76079Y-35481
T7
X83353Y-39567
X83353Y-41142
X83353Y-42717
X83353Y-44291
X83353Y-45866
X83353Y-47441
X83353Y-49016
X83353Y-50591
X83353Y-52165
X83353Y-53740
X83353Y-55315
X83353Y-56890
X84928Y-40354
X84928Y-41929
X84928Y-43504
X84928Y-45089
X84928Y-46654
X84928Y-48228
X84928Y-49803
X84928Y-51368
X84928Y-52953
X84928Y-54528
X84928Y-56102
X86503Y-39567
X86503Y-41142
X86503Y-42717
X86503Y-44291
X86503Y-45866
X86503Y-47441
X86503Y-49016
X86503Y-50591
X86503Y-52165
X86503Y-53740
X86503Y-55315
X86503Y-56890
X59731Y-36811
X59731Y-39961
X60519Y-38386
X61306Y-36811
X61306Y-39961
X62093Y-38386
X62881Y-36811
X62881Y-39961
X63668Y-38386
X64456Y-36811
X64456Y-39961
X65243Y-38386
X66030Y-36811
X66030Y-39961
X66818Y-38386
X67605Y-36811
X67605Y-39961
X68393Y-38386
X69180Y-36811
X69180Y-39961
X69967Y-38386
X70755Y-36811
X70755Y-39961
X43997Y-39567
X43997Y-41142
X43997Y-42717
X43997Y-44291
X43997Y-45866
X43997Y-47441
X43997Y-49016
X43997Y-50591
X43997Y-52165
X43997Y-53740
X43997Y-55315
X43997Y-56890
X45572Y-40354
X45572Y-41929
X45572Y-43504
X45572Y-45089
X45572Y-46654
X45572Y-48228
X45572Y-49803
X45572Y-51368
X45572Y-52953
X45572Y-54528
X45572Y-56102
X47147Y-39567
X47147Y-41142
X47147Y-42717
X47147Y-44291
X47147Y-45866
X47147Y-47441
X47147Y-49016
X47147Y-50591
X47147Y-52165
X47147Y-53740
X47147Y-55315
X47147Y-56890
T0
M30
