G04 #@! TF.GenerationSoftware,KiCad,Pcbnew,(5.1.8)-1*
G04 #@! TF.CreationDate,2021-01-07T21:43:29-06:00*
G04 #@! TF.ProjectId,5.0mustangProteusPnP,352e306d-7573-4746-916e-6750726f7465,R0.1*
G04 #@! TF.SameCoordinates,Original*
G04 #@! TF.FileFunction,Legend,Top*
G04 #@! TF.FilePolarity,Positive*
%FSLAX46Y46*%
G04 Gerber Fmt 4.6, Leading zero omitted, Abs format (unit mm)*
G04 Created by KiCad (PCBNEW (5.1.8)-1) date 2021-01-07 21:43:29*
%MOMM*%
%LPD*%
G01*
G04 APERTURE LIST*
%ADD10C,0.130000*%
%ADD11C,0.152400*%
%ADD12C,0.127000*%
%ADD13C,0.150000*%
G04 APERTURE END LIST*
D10*
X98391006Y-164421066D02*
X97557673Y-164421066D01*
X97474339Y-165254400D01*
X97557673Y-165171066D01*
X97724339Y-165087733D01*
X98141006Y-165087733D01*
X98307673Y-165171066D01*
X98391006Y-165254400D01*
X98474339Y-165421066D01*
X98474339Y-165837733D01*
X98391006Y-166004400D01*
X98307673Y-166087733D01*
X98141006Y-166171066D01*
X97724339Y-166171066D01*
X97557673Y-166087733D01*
X97474339Y-166004400D01*
X99224339Y-166004400D02*
X99307673Y-166087733D01*
X99224339Y-166171066D01*
X99141006Y-166087733D01*
X99224339Y-166004400D01*
X99224339Y-166171066D01*
X100391006Y-164421066D02*
X100557673Y-164421066D01*
X100724339Y-164504400D01*
X100807673Y-164587733D01*
X100891006Y-164754400D01*
X100974339Y-165087733D01*
X100974339Y-165504400D01*
X100891006Y-165837733D01*
X100807673Y-166004400D01*
X100724339Y-166087733D01*
X100557673Y-166171066D01*
X100391006Y-166171066D01*
X100224339Y-166087733D01*
X100141006Y-166004400D01*
X100057673Y-165837733D01*
X99974339Y-165504400D01*
X99974339Y-165087733D01*
X100057673Y-164754400D01*
X100141006Y-164587733D01*
X100224339Y-164504400D01*
X100391006Y-164421066D01*
X103057673Y-166171066D02*
X103057673Y-164421066D01*
X103641006Y-165671066D01*
X104224339Y-164421066D01*
X104224339Y-166171066D01*
X105807673Y-165004400D02*
X105807673Y-166171066D01*
X105057673Y-165004400D02*
X105057673Y-165921066D01*
X105141006Y-166087733D01*
X105307673Y-166171066D01*
X105557673Y-166171066D01*
X105724339Y-166087733D01*
X105807673Y-166004400D01*
X106557673Y-166087733D02*
X106724339Y-166171066D01*
X107057673Y-166171066D01*
X107224339Y-166087733D01*
X107307673Y-165921066D01*
X107307673Y-165837733D01*
X107224339Y-165671066D01*
X107057673Y-165587733D01*
X106807673Y-165587733D01*
X106641006Y-165504400D01*
X106557673Y-165337733D01*
X106557673Y-165254400D01*
X106641006Y-165087733D01*
X106807673Y-165004400D01*
X107057673Y-165004400D01*
X107224339Y-165087733D01*
X107807673Y-165004400D02*
X108474339Y-165004400D01*
X108057673Y-164421066D02*
X108057673Y-165921066D01*
X108141006Y-166087733D01*
X108307673Y-166171066D01*
X108474339Y-166171066D01*
X109807673Y-166171066D02*
X109807673Y-165254400D01*
X109724339Y-165087733D01*
X109557673Y-165004400D01*
X109224339Y-165004400D01*
X109057673Y-165087733D01*
X109807673Y-166087733D02*
X109641006Y-166171066D01*
X109224339Y-166171066D01*
X109057673Y-166087733D01*
X108974339Y-165921066D01*
X108974339Y-165754400D01*
X109057673Y-165587733D01*
X109224339Y-165504400D01*
X109641006Y-165504400D01*
X109807673Y-165421066D01*
X110641006Y-165004400D02*
X110641006Y-166171066D01*
X110641006Y-165171066D02*
X110724339Y-165087733D01*
X110891006Y-165004400D01*
X111141006Y-165004400D01*
X111307673Y-165087733D01*
X111391006Y-165254400D01*
X111391006Y-166171066D01*
X112974339Y-165004400D02*
X112974339Y-166421066D01*
X112891006Y-166587733D01*
X112807673Y-166671066D01*
X112641006Y-166754400D01*
X112391006Y-166754400D01*
X112224339Y-166671066D01*
X112974339Y-166087733D02*
X112807673Y-166171066D01*
X112474339Y-166171066D01*
X112307673Y-166087733D01*
X112224339Y-166004400D01*
X112141006Y-165837733D01*
X112141006Y-165337733D01*
X112224339Y-165171066D01*
X112307673Y-165087733D01*
X112474339Y-165004400D01*
X112807673Y-165004400D01*
X112974339Y-165087733D01*
X115141006Y-166171066D02*
X115141006Y-164421066D01*
X115807673Y-164421066D01*
X115974340Y-164504400D01*
X116057673Y-164587733D01*
X116141006Y-164754400D01*
X116141006Y-165004400D01*
X116057673Y-165171066D01*
X115974340Y-165254400D01*
X115807673Y-165337733D01*
X115141006Y-165337733D01*
X116891006Y-166171066D02*
X116891006Y-165004400D01*
X116891006Y-165337733D02*
X116974340Y-165171066D01*
X117057673Y-165087733D01*
X117224340Y-165004400D01*
X117391006Y-165004400D01*
X118224340Y-166171066D02*
X118057673Y-166087733D01*
X117974340Y-166004400D01*
X117891006Y-165837733D01*
X117891006Y-165337733D01*
X117974340Y-165171066D01*
X118057673Y-165087733D01*
X118224340Y-165004400D01*
X118474340Y-165004400D01*
X118641006Y-165087733D01*
X118724340Y-165171066D01*
X118807673Y-165337733D01*
X118807673Y-165837733D01*
X118724340Y-166004400D01*
X118641006Y-166087733D01*
X118474340Y-166171066D01*
X118224340Y-166171066D01*
X119307673Y-165004400D02*
X119974339Y-165004400D01*
X119557673Y-164421066D02*
X119557673Y-165921066D01*
X119641006Y-166087733D01*
X119807673Y-166171066D01*
X119974339Y-166171066D01*
X121224339Y-166087733D02*
X121057673Y-166171066D01*
X120724339Y-166171066D01*
X120557673Y-166087733D01*
X120474339Y-165921066D01*
X120474339Y-165254400D01*
X120557673Y-165087733D01*
X120724339Y-165004400D01*
X121057673Y-165004400D01*
X121224339Y-165087733D01*
X121307673Y-165254400D01*
X121307673Y-165421066D01*
X120474339Y-165587733D01*
X122807673Y-165004400D02*
X122807673Y-166171066D01*
X122057673Y-165004400D02*
X122057673Y-165921066D01*
X122141006Y-166087733D01*
X122307673Y-166171066D01*
X122557673Y-166171066D01*
X122724339Y-166087733D01*
X122807673Y-166004400D01*
X123557673Y-166087733D02*
X123724339Y-166171066D01*
X124057673Y-166171066D01*
X124224339Y-166087733D01*
X124307673Y-165921066D01*
X124307673Y-165837733D01*
X124224339Y-165671066D01*
X124057673Y-165587733D01*
X123807673Y-165587733D01*
X123641006Y-165504400D01*
X123557673Y-165337733D01*
X123557673Y-165254400D01*
X123641006Y-165087733D01*
X123807673Y-165004400D01*
X124057673Y-165004400D01*
X124224339Y-165087733D01*
X126391006Y-166171066D02*
X126391006Y-164421066D01*
X127057673Y-164421066D01*
X127224339Y-164504400D01*
X127307673Y-164587733D01*
X127391006Y-164754400D01*
X127391006Y-165004400D01*
X127307673Y-165171066D01*
X127224339Y-165254400D01*
X127057673Y-165337733D01*
X126391006Y-165337733D01*
X128141006Y-165004400D02*
X128141006Y-166171066D01*
X128141006Y-165171066D02*
X128224339Y-165087733D01*
X128391006Y-165004400D01*
X128641006Y-165004400D01*
X128807673Y-165087733D01*
X128891006Y-165254400D01*
X128891006Y-166171066D01*
X129724339Y-166171066D02*
X129724339Y-164421066D01*
X130391006Y-164421066D01*
X130557673Y-164504400D01*
X130641006Y-164587733D01*
X130724339Y-164754400D01*
X130724339Y-165004400D01*
X130641006Y-165171066D01*
X130557673Y-165254400D01*
X130391006Y-165337733D01*
X129724339Y-165337733D01*
X126095902Y-168461185D02*
X126345902Y-169211185D01*
X126595902Y-168461185D01*
X126988760Y-168461185D02*
X127060188Y-168461185D01*
X127131617Y-168496900D01*
X127167331Y-168532614D01*
X127203045Y-168604042D01*
X127238760Y-168746900D01*
X127238760Y-168925471D01*
X127203045Y-169068328D01*
X127167331Y-169139757D01*
X127131617Y-169175471D01*
X127060188Y-169211185D01*
X126988760Y-169211185D01*
X126917331Y-169175471D01*
X126881617Y-169139757D01*
X126845902Y-169068328D01*
X126810188Y-168925471D01*
X126810188Y-168746900D01*
X126845902Y-168604042D01*
X126881617Y-168532614D01*
X126917331Y-168496900D01*
X126988760Y-168461185D01*
X127560188Y-169139757D02*
X127595902Y-169175471D01*
X127560188Y-169211185D01*
X127524474Y-169175471D01*
X127560188Y-169139757D01*
X127560188Y-169211185D01*
X128310188Y-169211185D02*
X127881617Y-169211185D01*
X128095902Y-169211185D02*
X128095902Y-168461185D01*
X128024474Y-168568328D01*
X127953045Y-168639757D01*
X127881617Y-168675471D01*
X100419931Y-172312905D02*
X100419931Y-172920048D01*
X100384217Y-172991477D01*
X100348502Y-173027191D01*
X100277074Y-173062905D01*
X100169931Y-173062905D01*
X100098502Y-173027191D01*
X100419931Y-172777191D02*
X100348502Y-172812905D01*
X100205645Y-172812905D01*
X100134217Y-172777191D01*
X100098502Y-172741477D01*
X100062788Y-172670048D01*
X100062788Y-172455762D01*
X100098502Y-172384334D01*
X100134217Y-172348620D01*
X100205645Y-172312905D01*
X100348502Y-172312905D01*
X100419931Y-172348620D01*
X100777074Y-172812905D02*
X100777074Y-172312905D01*
X100777074Y-172062905D02*
X100741360Y-172098620D01*
X100777074Y-172134334D01*
X100812788Y-172098620D01*
X100777074Y-172062905D01*
X100777074Y-172134334D01*
X101027074Y-172312905D02*
X101312788Y-172312905D01*
X101134217Y-172062905D02*
X101134217Y-172705762D01*
X101169931Y-172777191D01*
X101241360Y-172812905D01*
X101312788Y-172812905D01*
X101562788Y-172812905D02*
X101562788Y-172062905D01*
X101884217Y-172812905D02*
X101884217Y-172420048D01*
X101848502Y-172348620D01*
X101777074Y-172312905D01*
X101669931Y-172312905D01*
X101598502Y-172348620D01*
X101562788Y-172384334D01*
X102562788Y-172312905D02*
X102562788Y-172812905D01*
X102241360Y-172312905D02*
X102241360Y-172705762D01*
X102277074Y-172777191D01*
X102348502Y-172812905D01*
X102455645Y-172812905D01*
X102527074Y-172777191D01*
X102562788Y-172741477D01*
X102919931Y-172812905D02*
X102919931Y-172062905D01*
X102919931Y-172348620D02*
X102991360Y-172312905D01*
X103134217Y-172312905D01*
X103205645Y-172348620D01*
X103241360Y-172384334D01*
X103277074Y-172455762D01*
X103277074Y-172670048D01*
X103241360Y-172741477D01*
X103205645Y-172777191D01*
X103134217Y-172812905D01*
X102991360Y-172812905D01*
X102919931Y-172777191D01*
X103598502Y-172741477D02*
X103634217Y-172777191D01*
X103598502Y-172812905D01*
X103562788Y-172777191D01*
X103598502Y-172741477D01*
X103598502Y-172812905D01*
X104277074Y-172777191D02*
X104205645Y-172812905D01*
X104062788Y-172812905D01*
X103991360Y-172777191D01*
X103955645Y-172741477D01*
X103919931Y-172670048D01*
X103919931Y-172455762D01*
X103955645Y-172384334D01*
X103991360Y-172348620D01*
X104062788Y-172312905D01*
X104205645Y-172312905D01*
X104277074Y-172348620D01*
X104705645Y-172812905D02*
X104634217Y-172777191D01*
X104598502Y-172741477D01*
X104562788Y-172670048D01*
X104562788Y-172455762D01*
X104598502Y-172384334D01*
X104634217Y-172348620D01*
X104705645Y-172312905D01*
X104812788Y-172312905D01*
X104884217Y-172348620D01*
X104919931Y-172384334D01*
X104955645Y-172455762D01*
X104955645Y-172670048D01*
X104919931Y-172741477D01*
X104884217Y-172777191D01*
X104812788Y-172812905D01*
X104705645Y-172812905D01*
X105277074Y-172812905D02*
X105277074Y-172312905D01*
X105277074Y-172384334D02*
X105312788Y-172348620D01*
X105384217Y-172312905D01*
X105491360Y-172312905D01*
X105562788Y-172348620D01*
X105598502Y-172420048D01*
X105598502Y-172812905D01*
X105598502Y-172420048D02*
X105634217Y-172348620D01*
X105705645Y-172312905D01*
X105812788Y-172312905D01*
X105884217Y-172348620D01*
X105919931Y-172420048D01*
X105919931Y-172812905D01*
X106812788Y-172027191D02*
X106169931Y-172991477D01*
X106991360Y-172312905D02*
X107134217Y-172812905D01*
X107277074Y-172455762D01*
X107419931Y-172812905D01*
X107562788Y-172312905D01*
X107812788Y-172777191D02*
X107884217Y-172812905D01*
X108027074Y-172812905D01*
X108098502Y-172777191D01*
X108134217Y-172705762D01*
X108134217Y-172670048D01*
X108098502Y-172598620D01*
X108027074Y-172562905D01*
X107919931Y-172562905D01*
X107848502Y-172527191D01*
X107812788Y-172455762D01*
X107812788Y-172420048D01*
X107848502Y-172348620D01*
X107919931Y-172312905D01*
X108027074Y-172312905D01*
X108098502Y-172348620D01*
X108348502Y-172312905D02*
X108634217Y-172312905D01*
X108455645Y-172062905D02*
X108455645Y-172705762D01*
X108491360Y-172777191D01*
X108562788Y-172812905D01*
X108634217Y-172812905D01*
X109169931Y-172777191D02*
X109098502Y-172812905D01*
X108955645Y-172812905D01*
X108884217Y-172777191D01*
X108848502Y-172705762D01*
X108848502Y-172420048D01*
X108884217Y-172348620D01*
X108955645Y-172312905D01*
X109098502Y-172312905D01*
X109169931Y-172348620D01*
X109205645Y-172420048D01*
X109205645Y-172491477D01*
X108848502Y-172562905D01*
X109419931Y-172312905D02*
X109705645Y-172312905D01*
X109527074Y-172812905D02*
X109527074Y-172170048D01*
X109562788Y-172098620D01*
X109634217Y-172062905D01*
X109705645Y-172062905D01*
X110277074Y-172812905D02*
X110277074Y-172420048D01*
X110241360Y-172348620D01*
X110169931Y-172312905D01*
X110027074Y-172312905D01*
X109955645Y-172348620D01*
X110277074Y-172777191D02*
X110205645Y-172812905D01*
X110027074Y-172812905D01*
X109955645Y-172777191D01*
X109919931Y-172705762D01*
X109919931Y-172634334D01*
X109955645Y-172562905D01*
X110027074Y-172527191D01*
X110205645Y-172527191D01*
X110277074Y-172491477D01*
X110634217Y-172312905D02*
X110634217Y-172812905D01*
X110634217Y-172384334D02*
X110669931Y-172348620D01*
X110741360Y-172312905D01*
X110848502Y-172312905D01*
X110919931Y-172348620D01*
X110955645Y-172420048D01*
X110955645Y-172812905D01*
X111277074Y-172134334D02*
X111312788Y-172098620D01*
X111384217Y-172062905D01*
X111562788Y-172062905D01*
X111634217Y-172098620D01*
X111669931Y-172134334D01*
X111705645Y-172205762D01*
X111705645Y-172277191D01*
X111669931Y-172384334D01*
X111241360Y-172812905D01*
X111705645Y-172812905D01*
X112169931Y-172062905D02*
X112241360Y-172062905D01*
X112312788Y-172098620D01*
X112348502Y-172134334D01*
X112384217Y-172205762D01*
X112419931Y-172348620D01*
X112419931Y-172527191D01*
X112384217Y-172670048D01*
X112348502Y-172741477D01*
X112312788Y-172777191D01*
X112241360Y-172812905D01*
X112169931Y-172812905D01*
X112098502Y-172777191D01*
X112062788Y-172741477D01*
X112027074Y-172670048D01*
X111991360Y-172527191D01*
X111991360Y-172348620D01*
X112027074Y-172205762D01*
X112062788Y-172134334D01*
X112098502Y-172098620D01*
X112169931Y-172062905D01*
X113277074Y-172027191D02*
X112634217Y-172991477D01*
X113884217Y-172062905D02*
X113527074Y-172062905D01*
X113491360Y-172420048D01*
X113527074Y-172384334D01*
X113598502Y-172348620D01*
X113777074Y-172348620D01*
X113848502Y-172384334D01*
X113884217Y-172420048D01*
X113919931Y-172491477D01*
X113919931Y-172670048D01*
X113884217Y-172741477D01*
X113848502Y-172777191D01*
X113777074Y-172812905D01*
X113598502Y-172812905D01*
X113527074Y-172777191D01*
X113491360Y-172741477D01*
X114241360Y-172741477D02*
X114277074Y-172777191D01*
X114241360Y-172812905D01*
X114205645Y-172777191D01*
X114241360Y-172741477D01*
X114241360Y-172812905D01*
X114741360Y-172062905D02*
X114812788Y-172062905D01*
X114884217Y-172098620D01*
X114919931Y-172134334D01*
X114955645Y-172205762D01*
X114991360Y-172348620D01*
X114991360Y-172527191D01*
X114955645Y-172670048D01*
X114919931Y-172741477D01*
X114884217Y-172777191D01*
X114812788Y-172812905D01*
X114741360Y-172812905D01*
X114669931Y-172777191D01*
X114634217Y-172741477D01*
X114598502Y-172670048D01*
X114562788Y-172527191D01*
X114562788Y-172348620D01*
X114598502Y-172205762D01*
X114634217Y-172134334D01*
X114669931Y-172098620D01*
X114741360Y-172062905D01*
X115312788Y-172812905D02*
X115312788Y-172312905D01*
X115312788Y-172384334D02*
X115348502Y-172348620D01*
X115419931Y-172312905D01*
X115527074Y-172312905D01*
X115598502Y-172348620D01*
X115634217Y-172420048D01*
X115634217Y-172812905D01*
X115634217Y-172420048D02*
X115669931Y-172348620D01*
X115741360Y-172312905D01*
X115848502Y-172312905D01*
X115919931Y-172348620D01*
X115955645Y-172420048D01*
X115955645Y-172812905D01*
X116634217Y-172312905D02*
X116634217Y-172812905D01*
X116312788Y-172312905D02*
X116312788Y-172705762D01*
X116348502Y-172777191D01*
X116419931Y-172812905D01*
X116527074Y-172812905D01*
X116598502Y-172777191D01*
X116634217Y-172741477D01*
X116955645Y-172777191D02*
X117027074Y-172812905D01*
X117169931Y-172812905D01*
X117241360Y-172777191D01*
X117277074Y-172705762D01*
X117277074Y-172670048D01*
X117241360Y-172598620D01*
X117169931Y-172562905D01*
X117062788Y-172562905D01*
X116991360Y-172527191D01*
X116955645Y-172455762D01*
X116955645Y-172420048D01*
X116991360Y-172348620D01*
X117062788Y-172312905D01*
X117169931Y-172312905D01*
X117241360Y-172348620D01*
X117491360Y-172312905D02*
X117777074Y-172312905D01*
X117598502Y-172062905D02*
X117598502Y-172705762D01*
X117634217Y-172777191D01*
X117705645Y-172812905D01*
X117777074Y-172812905D01*
X118348502Y-172812905D02*
X118348502Y-172420048D01*
X118312788Y-172348620D01*
X118241360Y-172312905D01*
X118098502Y-172312905D01*
X118027074Y-172348620D01*
X118348502Y-172777191D02*
X118277074Y-172812905D01*
X118098502Y-172812905D01*
X118027074Y-172777191D01*
X117991360Y-172705762D01*
X117991360Y-172634334D01*
X118027074Y-172562905D01*
X118098502Y-172527191D01*
X118277074Y-172527191D01*
X118348502Y-172491477D01*
X118705645Y-172312905D02*
X118705645Y-172812905D01*
X118705645Y-172384334D02*
X118741360Y-172348620D01*
X118812788Y-172312905D01*
X118919931Y-172312905D01*
X118991360Y-172348620D01*
X119027074Y-172420048D01*
X119027074Y-172812905D01*
X119705645Y-172312905D02*
X119705645Y-172920048D01*
X119669931Y-172991477D01*
X119634217Y-173027191D01*
X119562788Y-173062905D01*
X119455645Y-173062905D01*
X119384217Y-173027191D01*
X119705645Y-172777191D02*
X119634217Y-172812905D01*
X119491360Y-172812905D01*
X119419931Y-172777191D01*
X119384217Y-172741477D01*
X119348502Y-172670048D01*
X119348502Y-172455762D01*
X119384217Y-172384334D01*
X119419931Y-172348620D01*
X119491360Y-172312905D01*
X119634217Y-172312905D01*
X119705645Y-172348620D01*
X120062788Y-172812905D02*
X120062788Y-172062905D01*
X120348502Y-172062905D01*
X120419931Y-172098620D01*
X120455645Y-172134334D01*
X120491360Y-172205762D01*
X120491360Y-172312905D01*
X120455645Y-172384334D01*
X120419931Y-172420048D01*
X120348502Y-172455762D01*
X120062788Y-172455762D01*
X120812788Y-172812905D02*
X120812788Y-172312905D01*
X120812788Y-172455762D02*
X120848502Y-172384334D01*
X120884217Y-172348620D01*
X120955645Y-172312905D01*
X121027074Y-172312905D01*
X121384217Y-172812905D02*
X121312788Y-172777191D01*
X121277074Y-172741477D01*
X121241360Y-172670048D01*
X121241360Y-172455762D01*
X121277074Y-172384334D01*
X121312788Y-172348620D01*
X121384217Y-172312905D01*
X121491360Y-172312905D01*
X121562788Y-172348620D01*
X121598502Y-172384334D01*
X121634217Y-172455762D01*
X121634217Y-172670048D01*
X121598502Y-172741477D01*
X121562788Y-172777191D01*
X121491360Y-172812905D01*
X121384217Y-172812905D01*
X121848502Y-172312905D02*
X122134217Y-172312905D01*
X121955645Y-172062905D02*
X121955645Y-172705762D01*
X121991360Y-172777191D01*
X122062788Y-172812905D01*
X122134217Y-172812905D01*
X122669931Y-172777191D02*
X122598502Y-172812905D01*
X122455645Y-172812905D01*
X122384217Y-172777191D01*
X122348502Y-172705762D01*
X122348502Y-172420048D01*
X122384217Y-172348620D01*
X122455645Y-172312905D01*
X122598502Y-172312905D01*
X122669931Y-172348620D01*
X122705645Y-172420048D01*
X122705645Y-172491477D01*
X122348502Y-172562905D01*
X123348502Y-172312905D02*
X123348502Y-172812905D01*
X123027074Y-172312905D02*
X123027074Y-172705762D01*
X123062788Y-172777191D01*
X123134217Y-172812905D01*
X123241360Y-172812905D01*
X123312788Y-172777191D01*
X123348502Y-172741477D01*
X123669931Y-172777191D02*
X123741360Y-172812905D01*
X123884217Y-172812905D01*
X123955645Y-172777191D01*
X123991360Y-172705762D01*
X123991360Y-172670048D01*
X123955645Y-172598620D01*
X123884217Y-172562905D01*
X123777074Y-172562905D01*
X123705645Y-172527191D01*
X123669931Y-172455762D01*
X123669931Y-172420048D01*
X123705645Y-172348620D01*
X123777074Y-172312905D01*
X123884217Y-172312905D01*
X123955645Y-172348620D01*
X124312788Y-172812905D02*
X124312788Y-172062905D01*
X124598502Y-172062905D01*
X124669931Y-172098620D01*
X124705645Y-172134334D01*
X124741360Y-172205762D01*
X124741360Y-172312905D01*
X124705645Y-172384334D01*
X124669931Y-172420048D01*
X124598502Y-172455762D01*
X124312788Y-172455762D01*
X125062788Y-172312905D02*
X125062788Y-172812905D01*
X125062788Y-172384334D02*
X125098502Y-172348620D01*
X125169931Y-172312905D01*
X125277074Y-172312905D01*
X125348502Y-172348620D01*
X125384217Y-172420048D01*
X125384217Y-172812905D01*
X125741360Y-172812905D02*
X125741360Y-172062905D01*
X126027074Y-172062905D01*
X126098502Y-172098620D01*
X126134217Y-172134334D01*
X126169931Y-172205762D01*
X126169931Y-172312905D01*
X126134217Y-172384334D01*
X126098502Y-172420048D01*
X126027074Y-172455762D01*
X125741360Y-172455762D01*
X99892008Y-169464111D02*
X99892008Y-167964111D01*
X100249151Y-167964111D01*
X100463437Y-168035540D01*
X100606294Y-168178397D01*
X100677722Y-168321254D01*
X100749151Y-168606968D01*
X100749151Y-168821254D01*
X100677722Y-169106968D01*
X100606294Y-169249825D01*
X100463437Y-169392682D01*
X100249151Y-169464111D01*
X99892008Y-169464111D01*
X101963437Y-169392682D02*
X101820580Y-169464111D01*
X101534865Y-169464111D01*
X101392008Y-169392682D01*
X101320580Y-169249825D01*
X101320580Y-168678397D01*
X101392008Y-168535540D01*
X101534865Y-168464111D01*
X101820580Y-168464111D01*
X101963437Y-168535540D01*
X102034865Y-168678397D01*
X102034865Y-168821254D01*
X101320580Y-168964111D01*
X102606294Y-169392682D02*
X102749151Y-169464111D01*
X103034865Y-169464111D01*
X103177722Y-169392682D01*
X103249151Y-169249825D01*
X103249151Y-169178397D01*
X103177722Y-169035540D01*
X103034865Y-168964111D01*
X102820580Y-168964111D01*
X102677722Y-168892682D01*
X102606294Y-168749825D01*
X102606294Y-168678397D01*
X102677722Y-168535540D01*
X102820580Y-168464111D01*
X103034865Y-168464111D01*
X103177722Y-168535540D01*
X103892008Y-169464111D02*
X103892008Y-168464111D01*
X103892008Y-167964111D02*
X103820580Y-168035540D01*
X103892008Y-168106968D01*
X103963437Y-168035540D01*
X103892008Y-167964111D01*
X103892008Y-168106968D01*
X105249151Y-168464111D02*
X105249151Y-169678397D01*
X105177722Y-169821254D01*
X105106294Y-169892682D01*
X104963437Y-169964111D01*
X104749151Y-169964111D01*
X104606294Y-169892682D01*
X105249151Y-169392682D02*
X105106294Y-169464111D01*
X104820580Y-169464111D01*
X104677722Y-169392682D01*
X104606294Y-169321254D01*
X104534865Y-169178397D01*
X104534865Y-168749825D01*
X104606294Y-168606968D01*
X104677722Y-168535540D01*
X104820580Y-168464111D01*
X105106294Y-168464111D01*
X105249151Y-168535540D01*
X105963437Y-168464111D02*
X105963437Y-169464111D01*
X105963437Y-168606968D02*
X106034865Y-168535540D01*
X106177722Y-168464111D01*
X106392008Y-168464111D01*
X106534865Y-168535540D01*
X106606294Y-168678397D01*
X106606294Y-169464111D01*
X108463437Y-169464111D02*
X108463437Y-167964111D01*
X108463437Y-168535540D02*
X108606294Y-168464111D01*
X108892008Y-168464111D01*
X109034865Y-168535540D01*
X109106294Y-168606968D01*
X109177722Y-168749825D01*
X109177722Y-169178397D01*
X109106294Y-169321254D01*
X109034865Y-169392682D01*
X108892008Y-169464111D01*
X108606294Y-169464111D01*
X108463437Y-169392682D01*
X109677722Y-168464111D02*
X110034865Y-169464111D01*
X110392008Y-168464111D02*
X110034865Y-169464111D01*
X109892008Y-169821254D01*
X109820580Y-169892682D01*
X109677722Y-169964111D01*
X111963437Y-168464111D02*
X112249151Y-169464111D01*
X112534865Y-168749825D01*
X112820580Y-169464111D01*
X113106294Y-168464111D01*
X113606294Y-169392682D02*
X113749151Y-169464111D01*
X114034865Y-169464111D01*
X114177722Y-169392682D01*
X114249151Y-169249825D01*
X114249151Y-169178397D01*
X114177722Y-169035540D01*
X114034865Y-168964111D01*
X113820580Y-168964111D01*
X113677722Y-168892682D01*
X113606294Y-168749825D01*
X113606294Y-168678397D01*
X113677722Y-168535540D01*
X113820580Y-168464111D01*
X114034865Y-168464111D01*
X114177722Y-168535540D01*
X114677722Y-168464111D02*
X115249151Y-168464111D01*
X114892008Y-167964111D02*
X114892008Y-169249825D01*
X114963437Y-169392682D01*
X115106294Y-169464111D01*
X115249151Y-169464111D01*
X116320580Y-169392682D02*
X116177722Y-169464111D01*
X115892008Y-169464111D01*
X115749151Y-169392682D01*
X115677722Y-169249825D01*
X115677722Y-168678397D01*
X115749151Y-168535540D01*
X115892008Y-168464111D01*
X116177722Y-168464111D01*
X116320580Y-168535540D01*
X116392008Y-168678397D01*
X116392008Y-168821254D01*
X115677722Y-168964111D01*
X116820580Y-168464111D02*
X117392008Y-168464111D01*
X117034865Y-169464111D02*
X117034865Y-168178397D01*
X117106294Y-168035540D01*
X117249151Y-167964111D01*
X117392008Y-167964111D01*
X118534865Y-169464111D02*
X118534865Y-168678397D01*
X118463437Y-168535540D01*
X118320580Y-168464111D01*
X118034865Y-168464111D01*
X117892008Y-168535540D01*
X118534865Y-169392682D02*
X118392008Y-169464111D01*
X118034865Y-169464111D01*
X117892008Y-169392682D01*
X117820580Y-169249825D01*
X117820580Y-169106968D01*
X117892008Y-168964111D01*
X118034865Y-168892682D01*
X118392008Y-168892682D01*
X118534865Y-168821254D01*
X119249151Y-168464111D02*
X119249151Y-169464111D01*
X119249151Y-168606968D02*
X119320580Y-168535540D01*
X119463437Y-168464111D01*
X119677722Y-168464111D01*
X119820580Y-168535540D01*
X119892008Y-168678397D01*
X119892008Y-169464111D01*
X120534865Y-168106968D02*
X120606294Y-168035540D01*
X120749151Y-167964111D01*
X121106294Y-167964111D01*
X121249151Y-168035540D01*
X121320580Y-168106968D01*
X121392008Y-168249825D01*
X121392008Y-168392682D01*
X121320580Y-168606968D01*
X120463437Y-169464111D01*
X121392008Y-169464111D01*
X122320580Y-167964111D02*
X122463437Y-167964111D01*
X122606294Y-168035540D01*
X122677722Y-168106968D01*
X122749151Y-168249825D01*
X122820580Y-168535540D01*
X122820580Y-168892682D01*
X122749151Y-169178397D01*
X122677722Y-169321254D01*
X122606294Y-169392682D01*
X122463437Y-169464111D01*
X122320580Y-169464111D01*
X122177722Y-169392682D01*
X122106294Y-169321254D01*
X122034865Y-169178397D01*
X121963437Y-168892682D01*
X121963437Y-168535540D01*
X122034865Y-168249825D01*
X122106294Y-168106968D01*
X122177722Y-168035540D01*
X122320580Y-167964111D01*
X183511613Y-96265879D02*
X183511613Y-96991593D01*
X183463232Y-97136736D01*
X183366470Y-97233498D01*
X183221327Y-97281879D01*
X183124565Y-97281879D01*
X183898660Y-96265879D02*
X184527613Y-96265879D01*
X184188946Y-96652926D01*
X184334089Y-96652926D01*
X184430851Y-96701307D01*
X184479232Y-96749688D01*
X184527613Y-96846450D01*
X184527613Y-97088355D01*
X184479232Y-97185117D01*
X184430851Y-97233498D01*
X184334089Y-97281879D01*
X184043803Y-97281879D01*
X183947041Y-97233498D01*
X183898660Y-97185117D01*
X106163533Y-122143399D02*
X106163533Y-122869113D01*
X106115152Y-123014256D01*
X106018390Y-123111018D01*
X105873247Y-123159399D01*
X105776485Y-123159399D01*
X107082771Y-122143399D02*
X106889247Y-122143399D01*
X106792485Y-122191780D01*
X106744104Y-122240160D01*
X106647342Y-122385303D01*
X106598961Y-122578827D01*
X106598961Y-122965875D01*
X106647342Y-123062637D01*
X106695723Y-123111018D01*
X106792485Y-123159399D01*
X106986009Y-123159399D01*
X107082771Y-123111018D01*
X107131152Y-123062637D01*
X107179533Y-122965875D01*
X107179533Y-122723970D01*
X107131152Y-122627208D01*
X107082771Y-122578827D01*
X106986009Y-122530446D01*
X106792485Y-122530446D01*
X106695723Y-122578827D01*
X106647342Y-122627208D01*
X106598961Y-122723970D01*
X224022073Y-120487319D02*
X224022073Y-121213033D01*
X223973692Y-121358176D01*
X223876930Y-121454938D01*
X223731787Y-121503319D01*
X223635025Y-121503319D01*
X224989692Y-120487319D02*
X224505882Y-120487319D01*
X224457501Y-120971128D01*
X224505882Y-120922747D01*
X224602644Y-120874366D01*
X224844549Y-120874366D01*
X224941311Y-120922747D01*
X224989692Y-120971128D01*
X225038073Y-121067890D01*
X225038073Y-121309795D01*
X224989692Y-121406557D01*
X224941311Y-121454938D01*
X224844549Y-121503319D01*
X224602644Y-121503319D01*
X224505882Y-121454938D01*
X224457501Y-121406557D01*
X115140014Y-71859019D02*
X114946490Y-71859019D01*
X114849728Y-71907400D01*
X114801347Y-71955780D01*
X114704585Y-72100923D01*
X114656204Y-72294447D01*
X114656204Y-72681495D01*
X114704585Y-72778257D01*
X114752966Y-72826638D01*
X114849728Y-72875019D01*
X115043252Y-72875019D01*
X115140014Y-72826638D01*
X115188395Y-72778257D01*
X115236776Y-72681495D01*
X115236776Y-72439590D01*
X115188395Y-72342828D01*
X115140014Y-72294447D01*
X115043252Y-72246066D01*
X114849728Y-72246066D01*
X114752966Y-72294447D01*
X114704585Y-72342828D01*
X114656204Y-72439590D01*
X115865728Y-71859019D02*
X115962490Y-71859019D01*
X116059252Y-71907400D01*
X116107633Y-71955780D01*
X116156014Y-72052542D01*
X116204395Y-72246066D01*
X116204395Y-72487971D01*
X116156014Y-72681495D01*
X116107633Y-72778257D01*
X116059252Y-72826638D01*
X115962490Y-72875019D01*
X115865728Y-72875019D01*
X115768966Y-72826638D01*
X115720585Y-72778257D01*
X115672204Y-72681495D01*
X115623823Y-72487971D01*
X115623823Y-72246066D01*
X115672204Y-72052542D01*
X115720585Y-71955780D01*
X115768966Y-71907400D01*
X115865728Y-71859019D01*
X172392823Y-68684019D02*
X173021776Y-68684019D01*
X172683109Y-69071066D01*
X172828252Y-69071066D01*
X172925014Y-69119447D01*
X172973395Y-69167828D01*
X173021776Y-69264590D01*
X173021776Y-69506495D01*
X172973395Y-69603257D01*
X172925014Y-69651638D01*
X172828252Y-69700019D01*
X172537966Y-69700019D01*
X172441204Y-69651638D01*
X172392823Y-69603257D01*
X173650728Y-68684019D02*
X173747490Y-68684019D01*
X173844252Y-68732400D01*
X173892633Y-68780780D01*
X173941014Y-68877542D01*
X173989395Y-69071066D01*
X173989395Y-69312971D01*
X173941014Y-69506495D01*
X173892633Y-69603257D01*
X173844252Y-69651638D01*
X173747490Y-69700019D01*
X173650728Y-69700019D01*
X173553966Y-69651638D01*
X173505585Y-69603257D01*
X173457204Y-69506495D01*
X173408823Y-69312971D01*
X173408823Y-69071066D01*
X173457204Y-68877542D01*
X173505585Y-68780780D01*
X173553966Y-68732400D01*
X173650728Y-68684019D01*
X217320585Y-66525019D02*
X216740014Y-66525019D01*
X217030300Y-66525019D02*
X217030300Y-65509019D01*
X216933538Y-65654161D01*
X216836776Y-65750923D01*
X216740014Y-65799304D01*
X214986204Y-68780780D02*
X215034585Y-68732400D01*
X215131347Y-68684019D01*
X215373252Y-68684019D01*
X215470014Y-68732400D01*
X215518395Y-68780780D01*
X215566776Y-68877542D01*
X215566776Y-68974304D01*
X215518395Y-69119447D01*
X214937823Y-69700019D01*
X215566776Y-69700019D01*
X216534395Y-69700019D02*
X215953823Y-69700019D01*
X216244109Y-69700019D02*
X216244109Y-68684019D01*
X216147347Y-68829161D01*
X216050585Y-68925923D01*
X215953823Y-68974304D01*
X174291776Y-66525019D02*
X173711204Y-66525019D01*
X174001490Y-66525019D02*
X174001490Y-65509019D01*
X173904728Y-65654161D01*
X173807966Y-65750923D01*
X173711204Y-65799304D01*
X174920728Y-65509019D02*
X175017490Y-65509019D01*
X175114252Y-65557400D01*
X175162633Y-65605780D01*
X175211014Y-65702542D01*
X175259395Y-65896066D01*
X175259395Y-66137971D01*
X175211014Y-66331495D01*
X175162633Y-66428257D01*
X175114252Y-66476638D01*
X175017490Y-66525019D01*
X174920728Y-66525019D01*
X174823966Y-66476638D01*
X174775585Y-66428257D01*
X174727204Y-66331495D01*
X174678823Y-66137971D01*
X174678823Y-65896066D01*
X174727204Y-65702542D01*
X174775585Y-65605780D01*
X174823966Y-65557400D01*
X174920728Y-65509019D01*
X171703395Y-71859019D02*
X171219585Y-71859019D01*
X171171204Y-72342828D01*
X171219585Y-72294447D01*
X171316347Y-72246066D01*
X171558252Y-72246066D01*
X171655014Y-72294447D01*
X171703395Y-72342828D01*
X171751776Y-72439590D01*
X171751776Y-72681495D01*
X171703395Y-72778257D01*
X171655014Y-72826638D01*
X171558252Y-72875019D01*
X171316347Y-72875019D01*
X171219585Y-72826638D01*
X171171204Y-72778257D01*
X172380728Y-71859019D02*
X172477490Y-71859019D01*
X172574252Y-71907400D01*
X172622633Y-71955780D01*
X172671014Y-72052542D01*
X172719395Y-72246066D01*
X172719395Y-72487971D01*
X172671014Y-72681495D01*
X172622633Y-72778257D01*
X172574252Y-72826638D01*
X172477490Y-72875019D01*
X172380728Y-72875019D01*
X172283966Y-72826638D01*
X172235585Y-72778257D01*
X172187204Y-72681495D01*
X172138823Y-72487971D01*
X172138823Y-72246066D01*
X172187204Y-72052542D01*
X172235585Y-71955780D01*
X172283966Y-71907400D01*
X172380728Y-71859019D01*
X159686776Y-66525019D02*
X159106204Y-66525019D01*
X159396490Y-66525019D02*
X159396490Y-65509019D01*
X159299728Y-65654161D01*
X159202966Y-65750923D01*
X159106204Y-65799304D01*
X160654395Y-66525019D02*
X160073823Y-66525019D01*
X160364109Y-66525019D02*
X160364109Y-65509019D01*
X160267347Y-65654161D01*
X160170585Y-65750923D01*
X160073823Y-65799304D01*
X157787823Y-68684019D02*
X158416776Y-68684019D01*
X158078109Y-69071066D01*
X158223252Y-69071066D01*
X158320014Y-69119447D01*
X158368395Y-69167828D01*
X158416776Y-69264590D01*
X158416776Y-69506495D01*
X158368395Y-69603257D01*
X158320014Y-69651638D01*
X158223252Y-69700019D01*
X157932966Y-69700019D01*
X157836204Y-69651638D01*
X157787823Y-69603257D01*
X159384395Y-69700019D02*
X158803823Y-69700019D01*
X159094109Y-69700019D02*
X159094109Y-68684019D01*
X158997347Y-68829161D01*
X158900585Y-68925923D01*
X158803823Y-68974304D01*
X117196204Y-65605780D02*
X117244585Y-65557400D01*
X117341347Y-65509019D01*
X117583252Y-65509019D01*
X117680014Y-65557400D01*
X117728395Y-65605780D01*
X117776776Y-65702542D01*
X117776776Y-65799304D01*
X117728395Y-65944447D01*
X117147823Y-66525019D01*
X117776776Y-66525019D01*
X118405728Y-65509019D02*
X118502490Y-65509019D01*
X118599252Y-65557400D01*
X118647633Y-65605780D01*
X118696014Y-65702542D01*
X118744395Y-65896066D01*
X118744395Y-66137971D01*
X118696014Y-66331495D01*
X118647633Y-66428257D01*
X118599252Y-66476638D01*
X118502490Y-66525019D01*
X118405728Y-66525019D01*
X118308966Y-66476638D01*
X118260585Y-66428257D01*
X118212204Y-66331495D01*
X118163823Y-66137971D01*
X118163823Y-65896066D01*
X118212204Y-65702542D01*
X118260585Y-65605780D01*
X118308966Y-65557400D01*
X118405728Y-65509019D01*
X116410014Y-69022685D02*
X116410014Y-69700019D01*
X116168109Y-68635638D02*
X115926204Y-69361352D01*
X116555157Y-69361352D01*
X117135728Y-68684019D02*
X117232490Y-68684019D01*
X117329252Y-68732400D01*
X117377633Y-68780780D01*
X117426014Y-68877542D01*
X117474395Y-69071066D01*
X117474395Y-69312971D01*
X117426014Y-69506495D01*
X117377633Y-69603257D01*
X117329252Y-69651638D01*
X117232490Y-69700019D01*
X117135728Y-69700019D01*
X117038966Y-69651638D01*
X116990585Y-69603257D01*
X116942204Y-69506495D01*
X116893823Y-69312971D01*
X116893823Y-69071066D01*
X116942204Y-68877542D01*
X116990585Y-68780780D01*
X117038966Y-68732400D01*
X117135728Y-68684019D01*
X213716204Y-71955780D02*
X213764585Y-71907400D01*
X213861347Y-71859019D01*
X214103252Y-71859019D01*
X214200014Y-71907400D01*
X214248395Y-71955780D01*
X214296776Y-72052542D01*
X214296776Y-72149304D01*
X214248395Y-72294447D01*
X213667823Y-72875019D01*
X214296776Y-72875019D01*
X214925728Y-71859019D02*
X215022490Y-71859019D01*
X215119252Y-71907400D01*
X215167633Y-71955780D01*
X215216014Y-72052542D01*
X215264395Y-72246066D01*
X215264395Y-72487971D01*
X215216014Y-72681495D01*
X215167633Y-72778257D01*
X215119252Y-72826638D01*
X215022490Y-72875019D01*
X214925728Y-72875019D01*
X214828966Y-72826638D01*
X214780585Y-72778257D01*
X214732204Y-72681495D01*
X214683823Y-72487971D01*
X214683823Y-72246066D01*
X214732204Y-72052542D01*
X214780585Y-71955780D01*
X214828966Y-71907400D01*
X214925728Y-71859019D01*
X157098395Y-71859019D02*
X156614585Y-71859019D01*
X156566204Y-72342828D01*
X156614585Y-72294447D01*
X156711347Y-72246066D01*
X156953252Y-72246066D01*
X157050014Y-72294447D01*
X157098395Y-72342828D01*
X157146776Y-72439590D01*
X157146776Y-72681495D01*
X157098395Y-72778257D01*
X157050014Y-72826638D01*
X156953252Y-72875019D01*
X156711347Y-72875019D01*
X156614585Y-72826638D01*
X156566204Y-72778257D01*
X158114395Y-72875019D02*
X157533823Y-72875019D01*
X157824109Y-72875019D02*
X157824109Y-71859019D01*
X157727347Y-72004161D01*
X157630585Y-72100923D01*
X157533823Y-72149304D01*
D11*
X197263802Y-93500000D02*
G75*
G03*
X197263802Y-93500000I-381000J0D01*
G01*
X220098000Y-161717602D02*
G75*
G03*
X220098000Y-161717602I-381000J0D01*
G01*
X112134000Y-83282398D02*
G75*
G03*
X112134000Y-83282398I-381000J0D01*
G01*
D12*
X107277600Y-62354200D02*
X224925600Y-62354200D01*
X224925600Y-62354200D02*
X224925600Y-75354200D01*
X107277600Y-62354200D02*
X107277600Y-75354200D01*
X107277600Y-75354200D02*
X159601600Y-75354200D01*
X172601600Y-75354200D02*
X224925600Y-75354200D01*
X159601600Y-75354200D02*
X161198600Y-83335200D01*
X172601600Y-75354200D02*
X171004600Y-83335200D01*
X171004600Y-83335200D02*
G75*
G02*
X161198600Y-83335200I-4903000J979716D01*
G01*
D11*
X132743410Y-163408360D02*
X132997410Y-163408360D01*
X132743410Y-172552360D02*
X132997410Y-172552360D01*
X132997410Y-163408360D02*
X132997410Y-172552360D01*
X132616410Y-172679360D02*
X160810410Y-172679360D01*
X160810410Y-172679360D02*
X160810410Y-163281360D01*
X160810410Y-163281360D02*
X132616410Y-163281360D01*
X132616410Y-163281360D02*
X132616410Y-172679360D01*
X170950000Y-163408360D02*
X171204000Y-163408360D01*
X170950000Y-172552360D02*
X171204000Y-172552360D01*
X171204000Y-163408360D02*
X171204000Y-172552360D01*
X170823000Y-172679360D02*
X199017000Y-172679360D01*
X199017000Y-172679360D02*
X199017000Y-163281360D01*
X199017000Y-163281360D02*
X170823000Y-163281360D01*
X170823000Y-163281360D02*
X170823000Y-172679360D01*
D13*
X137823410Y-168702740D02*
X137823410Y-168940836D01*
X137585314Y-168845598D02*
X137823410Y-168940836D01*
X138061505Y-168845598D01*
X137680552Y-169131312D02*
X137823410Y-168940836D01*
X137966267Y-169131312D01*
X176030000Y-168702740D02*
X176030000Y-168940836D01*
X175791904Y-168845598D02*
X176030000Y-168940836D01*
X176268095Y-168845598D01*
X175887142Y-169131312D02*
X176030000Y-168940836D01*
X176172857Y-169131312D01*
M02*
